<?xml version="1.0" encoding="UTF-8"?>
<svg xmlns="http://www.w3.org/2000/svg" xmlns:xlink="http://www.w3.org/1999/xlink" viewBox="0 0 32 32" width="32px" height="32px">
<g id="surface30942438">
<path style=" stroke:none;fill-rule:nonzero;fill:rgb(78.039217%,18.431373%,85.882354%);fill-opacity:1;" d="M 15.953125 1.28125 C 15.882812 1.28125 15.8125 1.292969 15.746094 1.316406 L 2.351562 5.980469 C 2.066406 6.078125 1.886719 6.359375 1.925781 6.660156 L 4.042969 24.019531 C 4.066406 24.222656 4.1875 24.40625 4.371094 24.503906 L 15.667969 30.640625 C 15.761719 30.695312 15.867188 30.71875 15.972656 30.71875 C 16.078125 30.71875 16.183594 30.695312 16.277344 30.640625 L 27.632812 24.417969 C 27.8125 24.320312 27.933594 24.140625 27.957031 23.933594 L 30.074219 6.578125 C 30.113281 6.277344 29.933594 5.992188 29.644531 5.894531 L 16.164062 1.3125 C 16.09375 1.292969 16.023438 1.28125 15.953125 1.28125 Z M 16 4.480469 L 24.320312 22.398438 L 21.480469 22.398438 L 19.699219 18.566406 L 12.300781 18.566406 L 10.519531 22.398438 L 7.679688 22.398438 Z M 16 10.558594 L 13.492188 16 L 18.507812 16 Z M 16 10.558594 "/>
</g>
</svg>
