<?xml version="1.0" encoding="UTF-8"?>
<svg xmlns="http://www.w3.org/2000/svg" xmlns:xlink="http://www.w3.org/1999/xlink" viewBox="0 0 32 32" width="32px" height="32px">
<g id="surface30945979">
<path style=" stroke:none;fill-rule:nonzero;fill:rgb(78.039217%,18.431373%,85.882354%);fill-opacity:1;" d="M 28.132812 14.734375 L 17.265625 3.867188 C 16.933594 3.535156 16.464844 3.332031 16 3.332031 C 15.535156 3.332031 15.066406 3.535156 14.734375 3.867188 L 12.398438 6.199219 L 15.132812 8.933594 C 15.398438 8.800781 15.667969 8.734375 16 8.734375 C 17.132812 8.734375 18 9.601562 18 10.734375 C 18 11.066406 17.933594 11.332031 17.800781 11.601562 L 20.464844 14.265625 C 20.734375 14.132812 21 14.066406 21.332031 14.066406 C 22.464844 14.066406 23.332031 14.933594 23.332031 16.066406 C 23.332031 17.199219 22.464844 18.066406 21.332031 18.066406 C 20.199219 18.066406 19.332031 17.199219 19.332031 16.066406 C 19.332031 15.734375 19.398438 15.464844 19.535156 15.199219 L 16.867188 12.535156 C 16.800781 12.535156 16.734375 12.601562 16.667969 12.601562 L 16.667969 19.535156 C 17.464844 19.800781 18 20.535156 18 21.398438 C 18 22.535156 17.132812 23.398438 16 23.398438 C 14.867188 23.398438 14 22.535156 14 21.398438 C 14 20.535156 14.535156 19.800781 15.332031 19.535156 L 15.332031 12.535156 C 14.535156 12.265625 14 11.535156 14 10.667969 C 14 10.332031 14.066406 10.066406 14.199219 9.800781 L 11.464844 7.066406 L 3.867188 14.734375 C 3.535156 15.066406 3.332031 15.535156 3.332031 16 C 3.332031 16.464844 3.535156 16.933594 3.867188 17.265625 L 14.734375 28.132812 C 15.066406 28.464844 15.535156 28.667969 16 28.667969 C 16.464844 28.667969 16.933594 28.464844 17.265625 28.132812 L 28.132812 17.265625 C 28.464844 16.933594 28.667969 16.464844 28.667969 16 C 28.667969 15.535156 28.464844 15.066406 28.132812 14.734375 Z M 28.132812 14.734375 "/>
</g>
</svg>
